<?xml version="1.0" encoding="UTF-8" standalone="no"?>
<svg width="206px" height="206px" viewBox="0 0 206 206" version="1.1" xmlns="http://www.w3.org/2000/svg" xmlns:xlink="http://www.w3.org/1999/xlink" xmlns:sketch="http://www.bohemiancoding.com/sketch/ns">
    <!-- Generator: Sketch 3.0.4 (8053) - http://www.bohemiancoding.com/sketch -->
    <title>svg_sprite 2</title>
    <desc>Created with Sketch.</desc>
    <defs></defs>
    <g id="Page-1" stroke="none" stroke-width="1" fill="none" fill-rule="evenodd" sketch:type="MSPage">
        <g id="feed-2" sketch:type="MSLayerGroup" transform="translate(3.000000, 3.000000)">
            <path d="M78.9375,140.03125 C78.9375,130.036133 70.9638672,122.0625 60.96875,122.0625 C50.9736328,122.0625 43,130.036133 43,140.03125 C43,150.026367 50.9736328,158 60.96875,158 C70.9638672,158 78.9375,150.026367 78.9375,140.03125 Z M158,155.585449 C158,93.4248047 107.575195,43 45.4145508,43 C44.0668945,43 43,44.0668945 43,45.4145508 L43,62.1479492 C43,63.4956055 44.0668945,64.5625 45.4145508,64.5625 C95.7270508,64.5625 136.4375,105.272949 136.4375,155.585449 C136.4375,156.933105 137.504395,158 138.852051,158 L155.585449,158 C156.933105,158 158,156.933105 158,155.585449 Z M122.0625,155.585449 C122.0625,113.302734 87.6972656,78.9375 45.4145508,78.9375 C44.0668945,78.9375 43,80.0043945 43,81.3520508 L43,98.0854492 C43,99.4331055 44.0668945,100.5 45.4145508,100.5 C75.8491211,100.5 100.5,125.150879 100.5,155.585449 C100.5,156.933105 101.566895,158 102.914551,158 L119.647949,158 C120.995605,158 122.0625,156.933105 122.0625,155.585449 Z" id="rss" fill="#2F4074" sketch:type="MSShapeGroup"></path>
            <path d="M100,200 C155.228475,200 200,155.228475 200,100 C200,44.771525 155.228475,0 100,0 C44.771525,0 0,44.771525 0,100 C0,155.228475 44.771525,200 100,200 Z" id="ring" stroke="#2F4074" stroke-width="6" sketch:type="MSShapeGroup"></path>
        </g>
    </g>
</svg>