<?xml version="1.0" encoding="UTF-8" standalone="no"?>
<svg width="206px" height="206px" viewBox="0 0 206 206" version="1.1" xmlns="http://www.w3.org/2000/svg" xmlns:xlink="http://www.w3.org/1999/xlink" xmlns:sketch="http://www.bohemiancoding.com/sketch/ns">
    <!-- Generator: Sketch 3.0.4 (8053) - http://www.bohemiancoding.com/sketch -->
    <title>svg_sprite 2</title>
    <desc>Created with Sketch.</desc>
    <defs></defs>
    <g id="Page-1" stroke="none" stroke-width="1" fill="none" fill-rule="evenodd" sketch:type="MSPage">
        <g id="instagram-2" sketch:type="MSLayerGroup" transform="translate(3.000000, 3.000000)">
            <path d="M132.257922,84 L160,84 L160,154.00468 C160,157.317443 157.317346,160 154.008125,160 L45.9918749,160 C42.6888701,160 40,157.315804 40,154.00468 L40,84 L67.7420782,84 C65.3468242,88.8198358 64,94.252634 64,100 C64,119.882252 80.117748,136 100,136 C119.882252,136 136,119.882252 136,100 C136,94.252634 134.653176,88.8198358 132.257922,84 L132.257922,84 Z M73.1667212,76 L40,76 L40,43.9901786 C40,41.7852456 41.7875545,40 43.9926147,40 L156.007385,40 C158.210539,40 160,41.7864638 160,43.9901786 L160,76 L126.833279,76 C120.241432,68.6350076 110.661998,64 100,64 C89.3380015,64 79.7585677,68.6350076 73.1667212,76 L73.1667212,76 Z M68,40 L68,64 L72,64 L72,40 L68,40 Z M60,40 L60,64 L64,64 L64,40 L60,40 Z M52,40 L52,64 L56,64 L56,40 L52,40 Z M128.991803,48 C128.444045,48 128,48.4553056 128,48.9918031 L128,67.0081969 C128,67.5559546 128.455306,68 128.991803,68 L147.008197,68 C147.555955,68 148,67.5446944 148,67.0081969 L148,48.9918031 C148,48.4440454 147.544694,48 147.008197,48 L128.991803,48 Z M100,128 C115.463974,128 128,115.463974 128,100 C128,84.5360262 115.463974,72 100,72 C84.5360262,72 72,84.5360262 72,100 C72,115.463974 84.5360262,128 100,128 Z" id="camera" fill="#2F4074" sketch:type="MSShapeGroup"></path>
            <circle id="ring" stroke="#2F4074" stroke-width="6" sketch:type="MSShapeGroup" cx="100" cy="100" r="100"></circle>
        </g>
    </g>
</svg>