<?xml version="1.0" encoding="UTF-8" standalone="no"?>
<svg width="206px" height="206px" viewBox="0 0 206 206" version="1.1" xmlns="http://www.w3.org/2000/svg" xmlns:xlink="http://www.w3.org/1999/xlink" xmlns:sketch="http://www.bohemiancoding.com/sketch/ns">
    <!-- Generator: Sketch 3.0.4 (8053) - http://www.bohemiancoding.com/sketch -->
    <title>svg_sprite 2</title>
    <desc>Created with Sketch.</desc>
    <defs></defs>
    <g id="Page-1" stroke="none" stroke-width="1" fill="none" fill-rule="evenodd" sketch:type="MSPage">
        <g id="more-2" sketch:type="MSLayerGroup" transform="translate(3.000000, 3.000000)">
            <path d="M100,115.271454 L100,132.508603 C100,133.271706 100.536133,133.900144 101.429688,134.214362 C101.84668,134.349028 102.144531,134.438804 102.561523,134.438804 C103.097656,134.438804 103.693359,134.349028 104.110352,134.034809 L159.987305,101.445825 C160.583008,101.131606 161,100.592945 161,99.9645075 C161,99.3360698 160.583008,98.7974089 159.987305,98.4831901 L104.110352,65.8942062 C103.395508,65.4902106 102.263672,65.4004338 101.429688,65.7146526 C100.536133,66.0288715 100,66.6573092 100,67.4204121 L100,84.6575606 C61.875,84.6575606 40.2509766,100.907164 39,126.897552 C39,127.750432 39.8339844,128.468646 40.9658203,128.693088 L41.5615234,128.693088 C42.3955078,128.693088 42.9316406,128.378869 43.8251953,127.750432 C52.9990234,119.131858 74.5634766,115.271454 100,115.271454 Z" id="arrow" fill="#2F4074" sketch:type="MSShapeGroup"></path>
            <circle id="ring" stroke="#2F4074" stroke-width="6" sketch:type="MSShapeGroup" cx="100" cy="100" r="100"></circle>
        </g>
    </g>
</svg>