<?xml version="1.0" encoding="UTF-8" standalone="no"?>
<svg width="206px" height="206px" viewBox="0 0 206 206" version="1.1" xmlns="http://www.w3.org/2000/svg" xmlns:xlink="http://www.w3.org/1999/xlink" xmlns:sketch="http://www.bohemiancoding.com/sketch/ns">
    <!-- Generator: Sketch 3.0.4 (8053) - http://www.bohemiancoding.com/sketch -->
    <title>svg_sprite 2</title>
    <desc>Created with Sketch.</desc>
    <defs></defs>
    <g id="Page-1" stroke="none" stroke-width="1" fill="none" fill-rule="evenodd" sketch:type="MSPage">
        <g id="twitter-2" sketch:type="MSLayerGroup" transform="translate(3.000000, 3.000000)">
            <path d="M68.4848116,71.3876261 C87.7114747,81.0942909 103.960222,80.534291 103.960222,80.534291 C103.960222,80.534291 97.8002217,59.0676268 116.840219,49.5476301 C135.880216,40.0276319 148.982469,56.0780407 148.982469,56.0780407 C148.982469,56.0780407 152.303126,55.1664878 154.777341,54.2549348 C157.251556,53.3433819 160.832657,51.7156088 160.832657,51.7156088 L154.965561,62.1880436 L164,61.2303914 C164,61.2303914 162.886481,62.8584887 159.270749,66.1746087 C155.655016,69.4907285 154.164796,71.2038761 154.164796,71.2038761 C154.164796,71.2038761 155.456432,97.0432741 141.844798,116.937201 C128.233162,136.831127 110.646132,148.770944 85.0981418,151.283861 C59.5501516,153.796778 42.911483,143.443863 42.911483,143.443863 C42.911483,143.443863 54.0848816,142.806191 61.2048129,140.083863 C68.3247446,137.361537 78.5648097,130.190532 78.5648097,130.190532 C78.5648097,130.190532 64.0048123,125.710533 58.7781467,120.670534 C53.551481,115.630535 52.2448146,112.643868 52.2448146,112.643868 L66.6181453,112.457202 C66.6181453,112.457202 51.4981481,104.430537 47.2048155,98.0838711 C42.9114825,91.7372058 42.3514831,85.5772068 42.3514831,85.5772068 L53.4018298,90.0395412 C53.4018298,90.0395412 44.2181501,77.5505415 42.911483,67.8438767 C41.6048166,58.1372119 44.5914827,52.9105462 44.5914827,52.9105462 C44.5914827,52.9105462 49.2581485,61.6809611 68.4848116,71.3876261 Z" id="bird" fill="#2F4074" sketch:type="MSShapeGroup"></path>
            <circle id="ring" stroke="#2F4074" stroke-width="6" sketch:type="MSShapeGroup" cx="100" cy="100" r="100"></circle>
        </g>
    </g>
</svg>